<svg xmlns="http://www.w3.org/2000/svg" viewBox="-10 -10 155.74 60">
    <defs>
        <style>
            .cls-1 {
                fill: #fff;
            }

            .cls-2 {
                font-size: 1rem;
                fill: #f4edef;
                font-family: Verdana, Verdana;
            }
        </style>
    </defs>
    <title>Code_Passion</title>
    <g id="Layer_2" data-name="Layer 2">
        <g id="Layer_1-2" data-name="Layer 1">
            <path class="cls-1" d="M53.17,0H2.71A2.53,2.53,0,0,0,0,2.31V29.4a2.53,2.53,0,0,0,2.71,2.31H21.58V37H14.23a2.35,2.35,0,0,0-2.5,2.14,2.35,2.35,0,0,0,2.5,2.14h27.4a2.35,2.35,0,0,0,2.5-2.14A2.35,2.35,0,0,0,41.64,37H34.29V31.71H53.17a2.53,2.53,0,0,0,2.71-2.31V2.31A2.53,2.53,0,0,0,53.17,0ZM51.81,28.24H4.06V3.47H51.81Z"
            />
            <path class="cls-1" d="M12.8,17.17l8.53,3.4a1.91,1.91,0,0,0,1.59-.09,1.38,1.38,0,0,0,.77-1.2v0a1.43,1.43,0,0,0-1-1.29l-5.34-2.12,5.34-2.12a1.43,1.43,0,0,0,1-1.29v0a1.38,1.38,0,0,0-.77-1.2A1.87,1.87,0,0,0,22,11a1.91,1.91,0,0,0-.7.13l-8.53,3.4a1.43,1.43,0,0,0-1,1.29v.1A1.43,1.43,0,0,0,12.8,17.17Z"
            />
            <path class="cls-1" d="M23.76,24.08a1.77,1.77,0,0,0,1.34.58h0a1.65,1.65,0,0,0,1.58-1l5.62-14.9a1.26,1.26,0,0,0-.24-1.27,1.77,1.77,0,0,0-1.34-.58h0a1.65,1.65,0,0,0-1.58,1l-5.62,14.9A1.26,1.26,0,0,0,23.76,24.08Z"
            />
            <path class="cls-1" d="M32.18,12.42a1.43,1.43,0,0,0,1,1.29l5.34,2.12-5.34,2.12a1.43,1.43,0,0,0-1,1.29v0a1.38,1.38,0,0,0,.77,1.2,1.87,1.87,0,0,0,.89.22,1.89,1.89,0,0,0,.7-.13l8.53-3.4a1.43,1.43,0,0,0,1-1.29v-.1a1.43,1.43,0,0,0-1-1.29l-8.53-3.4a1.91,1.91,0,0,0-.7-.13,1.87,1.87,0,0,0-.89.22,1.38,1.38,0,0,0-.77,1.2v0Z"
            />
            <text class="cls-2" transform="translate(74.32 13.41)">
                Code with
                <tspan class="cls-3" x="0" y="18.42">Passion</tspan>
            </text>
        </g>
    </g>
</svg>