<svg xmlns="http://www.w3.org/2000/svg" viewBox="0 0 151.97 60">
    <defs>
        <style>
            .cls-1 {
                fill: #fff;
            }

            .cls-2 {
                font-size: 1rem;
                fill: #f4edef;
                font-family: Verdana, Verdana;
            }
        </style>
    </defs>
    <title>Connectw_Pros</title>
    <g id="Layer_2" data-name="Layer 2">
        <g id="Layer_1-2" data-name="Layer 1">
            <path class="cls-1" d="M47.37,15A5.24,5.24,0,0,0,44.49,12a4,4,0,0,0-3.71.46,5.92,5.92,0,0,0-2.36,3.59,7.45,7.45,0,0,0-.08,3.13L33.07,22.7a10,10,0,0,0-7-5.19V11.92c2.07-.7,3.6-3.06,3.6-5.86C29.72,2.72,27.53,0,24.84,0S20,2.72,20,6.06c0,2.8,1.53,5.16,3.6,5.86v5.59c-3.66.57-6.72,3.59-8.07,7.7L9.74,23.28a7.19,7.19,0,0,0-.65-3,5.14,5.14,0,0,0-3-2.83c-2.59-.87-5.27,1-6,4.28a7.33,7.33,0,0,0,.48,4.6,5.15,5.15,0,0,0,3,2.83,4,4,0,0,0,1.28.21,4.14,4.14,0,0,0,2.42-.81,5.58,5.58,0,0,0,1.78-2.21l5.76,1.93a15.67,15.67,0,0,0-.1,1.72,14.56,14.56,0,0,0,2.12,7.7l-4.22,5.25a4.18,4.18,0,0,0-5.87,1,7.17,7.17,0,0,0,0,8.58,4.43,4.43,0,0,0,3.45,1.77,4.43,4.43,0,0,0,3.45-1.77,7.22,7.22,0,0,0,.77-7.31l4.22-5.25a8.87,8.87,0,0,0,6.18,2.64A8.87,8.87,0,0,0,31,39.9l4.22,5.25A7.22,7.22,0,0,0,36,52.46a4.23,4.23,0,0,0,6.89,0,7.17,7.17,0,0,0,0-8.58,4.18,4.18,0,0,0-5.87-1l-4.22-5.25A14.56,14.56,0,0,0,34.94,30a15.24,15.24,0,0,0-.67-4.49L39.53,22a4.83,4.83,0,0,0,2.14,1.65,4,4,0,0,0,1.42.26,4.12,4.12,0,0,0,2.29-.72,5.92,5.92,0,0,0,2.36-3.59A7.36,7.36,0,0,0,47.37,15Zm-3.19,5.43a1.92,1.92,0,0,1-1.78.22A2.51,2.51,0,0,1,41,19.2,3.53,3.53,0,0,1,40.84,17,2.84,2.84,0,0,1,42,15.26a2,2,0,0,1,1.1-.35,1.93,1.93,0,0,1,.68.13,2.51,2.51,0,0,1,1.38,1.41,3.53,3.53,0,0,1,.18,2.22A2.84,2.84,0,0,1,44.18,20.39ZM32.41,30c0,5.19-3.39,9.41-7.56,9.41S17.28,35.16,17.28,30s3.39-9.41,7.56-9.41,7.56,4.22,7.56,9.41ZM22.51,6.06a2.67,2.67,0,0,1,2.34-2.91,2.67,2.67,0,0,1,2.34,2.91A2.67,2.67,0,0,1,24.84,9,2.67,2.67,0,0,1,22.51,6.06Zm-18.24,20a2.47,2.47,0,0,1-1.42-1.36,3.52,3.52,0,0,1-.23-2.21C3,21,4.24,20.05,5.48,20.47A2.47,2.47,0,0,1,6.9,21.83,3.52,3.52,0,0,1,7.13,24C6.8,25.58,5.51,26.5,4.27,26.09Zm7.61,24.15a2,2,0,0,1-3.31,0,3.44,3.44,0,0,1,0-4.11,2,2,0,0,1,3.31,0A3.44,3.44,0,0,1,11.87,50.23Zm29.25-4.11a3.44,3.44,0,0,1,0,4.11,2,2,0,0,1-3.31,0,3.44,3.44,0,0,1,0-4.11,2,2,0,0,1,3.31,0Z"
            />
            <text class="cls-2" transform="translate(57.18 24.36)">
                Connect with
                <tspan x="0" y="18.42">Professionals</tspan>
            </text>
        </g>
    </g>
</svg>