<svg xmlns="http://www.w3.org/2000/svg" viewBox="0 0 272.83 59.38"><defs><style>.cls-1,.cls-2,.cls-4{fill:#fff;}.cls-2{fill-rule:evenodd;}.cls-3{fill:none;stroke:#fffef5;}.cls-3,.cls-4{stroke-miterlimit:10;}.cls-4{font-size:46.84px;stroke:#fffaf5;font-family:Verdana, Verdana;}</style></defs><title>IEEE</title><g id="Layer_2" data-name="Layer 2"><g id="Layer_1-2" data-name="Layer 1"><path class="cls-1" d="M38.08,27.8A87.64,87.64,0,0,1,31,36.94h0a77.11,77.11,0,0,1-7.81,7.47h0a1.9,1.9,0,0,1-2.45,0,82.41,82.41,0,0,1-8-7.65h0a86.33,86.33,0,0,1-6.92-8.82h0a2.47,2.47,0,0,1,0-2.71,86.36,86.36,0,0,1,6.92-8.82h0a82.42,82.42,0,0,1,8-7.65,1.9,1.9,0,0,1,2.45,0h0a82.47,82.47,0,0,1,8,7.65h0a83,83,0,0,1,6.93,8.95h0a2.05,2.05,0,0,1,0,2.45Zm5-2.83c-1.61-1.63-6.61-5.23-10.79-9.86S24.83,5,23.37,3.18C22.27,2,21.63,2,20.53,3.18,19.07,5,15.77,10.52,11.62,15.11S2.44,23.48.83,25c-1.1,1.22-1.1,1.92,0,3.14C2.44,29.7,7.47,33.38,11.62,38s7.46,10.15,8.91,11.93c1.1,1.22,1.74,1.22,2.84,0C24.81,48.12,28.1,42.6,32.28,38s9.21-8.39,10.79-9.86c1.1-1.22,1.1-1.92,0-3.14Z"/><path class="cls-1" d="M21.53,30.36c-5,0-9.11-1.79-9.12-4,0-1.52,1.91-2.84,4.76-3.52l2.16,1.54c-2.22.44-3.73,1.34-3.73,2.37,0,1.47,3.06,2.66,6.83,2.66,3.24,0,6.88-1.19,6.88-2.66,0-.93-1-1.46-1.93-2l-1.29.33L25.41,23l4.19,1.13-.95.27s1.6.92,1.94,1.94c.67,2.23-3.7,4-9.06,4Zm-1,8,.3-7.57a11.07,11.07,0,0,0,2.35,0l.31,7.58a7,7,0,0,1-3,0Zm1.41-24.65,2.42,7.73H22.72l.3,7.36a5.54,5.54,0,0,1-2.19,0l.29-7.35H19.47l2.44-7.73Zm15,11.71a77.06,77.06,0,0,0-6.43-8.3h0a76.5,76.5,0,0,0-7.4-7.1h0a1.75,1.75,0,0,0-2.26,0,76.5,76.5,0,0,0-7.4,7.1h0A80.14,80.14,0,0,0,7,25.33a2.29,2.29,0,0,0,0,2.52H7A80.15,80.15,0,0,0,13.4,36h0a76.6,76.6,0,0,0,7.4,7.1,1.76,1.76,0,0,0,2.28,0h0a71.66,71.66,0,0,0,7.25-6.93h0a81.41,81.41,0,0,0,6.58-8.48,1.91,1.91,0,0,0,0-2.27Z"/><path class="cls-2" d="M29.51,47h-.31v-.44h.25c.14,0,.32,0,.32.2s-.09.24-.25.24Zm.63-.2c0-.42-.25-.55-.68-.55h-.62v1.83h.35v-.77h.17l.38.77h.42l-.43-.8a.41.41,0,0,0,.4-.48Zm-.69,1.67h0a1.32,1.32,0,0,1,0-2.61,1.32,1.32,0,0,1,0,2.61Zm0-3A1.71,1.71,0,1,0,31,47.14a1.57,1.57,0,0,0-1.54-1.7Z"/><polygon class="cls-1" points="50.05 45.38 50.05 8.67 59.25 8.67 59.25 45.38 50.05 45.38 50.05 45.38 50.05 45.38"/><polygon class="cls-1" points="64.07 45.38 64.07 8.67 89.35 8.67 89.35 15.79 73.26 15.79 73.26 23.36 88.06 23.36 88.06 30.48 73.26 30.48 73.26 38.26 89.35 38.26 89.35 45.38 64.07 45.38 64.07 45.38 64.07 45.38"/><polygon class="cls-1" points="94.5 45.38 94.5 8.67 119.77 8.67 119.77 15.79 103.69 15.79 103.69 23.36 118.48 23.36 118.48 30.48 103.69 30.48 103.69 38.26 119.77 38.26 119.77 45.38 94.5 45.38 94.5 45.38 94.5 45.38"/><polygon class="cls-1" points="124.92 45.38 124.92 8.67 150.2 8.67 150.2 15.79 134.12 15.79 134.12 23.36 148.91 23.36 148.91 30.48 134.12 30.48 134.12 38.26 150.2 38.26 150.2 45.38 124.92 45.38 124.92 45.38 124.92 45.38"/><line class="cls-3" x1="162.68" x2="162.68" y2="53.08"/><text class="cls-4" transform="translate(176.32 44.68) scale(0.88 1)">UofT</text></g></g></svg>