<svg xmlns="http://www.w3.org/2000/svg" viewBox="0 0 190.17 60">
    <defs>
        <style>
            .cls-1 {
                fill: #fff;
            }

            .cls-2 {
                font-size: 1rem;
                fill: #f4edef;
                font-family: Verdana, Verdana;
            }
        </style>
    </defs>
    <title>Share_Ideas</title>
    <g id="Layer_2" data-name="Layer 2">
        <g id="Layer_1-2" data-name="Layer 1">
            <path class="cls-1" d="M7.4,18.39H1.61A1.5,1.5,0,0,0,0,19.76a1.5,1.5,0,0,0,1.61,1.37H7.4A1.5,1.5,0,0,0,9,19.76,1.5,1.5,0,0,0,7.4,18.39Z"
            />
            <path class="cls-1" d="M64.85,18.39H59.05a1.5,1.5,0,0,0-1.61,1.37,1.5,1.5,0,0,0,1.61,1.37h5.79a1.5,1.5,0,0,0,1.61-1.37A1.5,1.5,0,0,0,64.85,18.39Z"
            />
            <path class="cls-1" d="M14,36.09a1.82,1.82,0,0,0-2.28,0L7.55,39.68a1.23,1.23,0,0,0,0,1.94,1.81,1.81,0,0,0,2.28,0L14,38A1.23,1.23,0,0,0,14,36.09Z"
            />
            <path class="cls-1" d="M56,.4a1.82,1.82,0,0,0-2.28,0l-4.1,3.49a1.23,1.23,0,0,0,0,1.94,1.82,1.82,0,0,0,2.28,0L56,2.34A1.23,1.23,0,0,0,56,.4Z"
            />
            <path class="cls-1" d="M16.87,3.89,12.77.4a1.82,1.82,0,0,0-2.28,0,1.23,1.23,0,0,0,0,1.94l4.1,3.49a1.81,1.81,0,0,0,2.28,0A1.23,1.23,0,0,0,16.87,3.89Z"
            />
            <path class="cls-1" d="M58.91,39.68l-4.2-3.57a1.81,1.81,0,0,0-2.28,0,1.23,1.23,0,0,0,0,1.94l4.2,3.57a1.81,1.81,0,0,0,2.28,0A1.23,1.23,0,0,0,58.91,39.68Z"
            />
            <path class="cls-1" d="M33.23,3.72C22.1,3.72,13,11.79,13,21.7a21.81,21.81,0,0,0,5.32,13.61,15.64,15.64,0,0,1,4,10v8.62a3,3,0,0,0,3.22,2.74H40.91a3,3,0,0,0,3.22-2.74V45.29a15.64,15.64,0,0,1,4-10A21.81,21.81,0,0,0,53.42,21.7C53.42,11.79,44.36,3.72,33.23,3.72Zm7.68,50.19H25.55V52.12h7.68a1.39,1.39,0,1,0,0-2.74H25.55V47.59H40.91v6.33ZM31,28.34l-2.15-3.92h8.82l-2.15,3.92a1.21,1.21,0,0,0-.15.49l-1.25,16H32.37l-1.25-16A1.21,1.21,0,0,0,31,28.34Zm14.5,5.38a18.24,18.24,0,0,0-4.56,11.13h-3.6l1.21-15.57,3.1-5.63a1.2,1.2,0,0,0-.1-1.32,1.69,1.69,0,0,0-1.36-.63H26.29a1.69,1.69,0,0,0-1.36.63,1.2,1.2,0,0,0-.1,1.32l3.1,5.63,1.21,15.57h-3.6A18.24,18.24,0,0,0,21,33.72a19.56,19.56,0,0,1-4.72-12c0-8.4,7.61-15.24,17-15.24s17,6.84,17,15.24A19.56,19.56,0,0,1,45.47,33.72Z"
            />
            <text class="cls-2" transform="translate(76.19 26.21)">
                Share Exciting
                <tspan x="0" y="18.42">Ideas</tspan>
            </text>
        </g>
    </g>
</svg>